<svg xmlns="http://www.w3.org/2000/svg" xmlns:xlink="http://www.w3.org/1999/xlink" width="30.331" height="30.331" viewBox="0 0 30.331 30.331">
    <defs>
      <linearGradient id="linear-gradient" x1="-9.042" y1="-27.75" x2="-9.042" y2="-27.206" gradientUnits="objectBoundingBox">
        <stop offset="0" stop-color="#5ac9f5"/>
        <stop offset="0.5" stop-color="#32c6fa"/>
        <stop offset="1" stop-color="#21b5e3"/>
      </linearGradient>
    </defs>
    <g id="Group_1759" data-name="Group 1759" transform="translate(-2354.69 -13711.16)">
      <path id="Path_2572" data-name="Path 2572" d="M44.69,205.419h0a4.258,4.258,0,0,1,4.258-4.258H70.762a4.258,4.258,0,0,1,4.258,4.258v21.814a4.258,4.258,0,0,1-4.258,4.258H48.948a4.258,4.258,0,0,1-4.258-4.258Z" transform="translate(2310 13510)" fill="#d8d8d8" fill-rule="evenodd"/>
      <path id="Path_2573" data-name="Path 2573" d="M53.846,221.677a1.99,1.99,0,0,0,.484,1.031,1.377,1.377,0,0,0,1.016.344,1.59,1.59,0,0,0,.609-.109.964.964,0,0,0,.438-.375,1.184,1.184,0,0,0,.172-.656,1.353,1.353,0,0,0-.141-.641,1.425,1.425,0,0,0-.422-.5,4.267,4.267,0,0,0-.828-.516,6.4,6.4,0,0,1-.844-.469,3.565,3.565,0,0,1-.625-.547,2.772,2.772,0,0,1-.406-.641,2.17,2.17,0,0,1-.141-.8,2.033,2.033,0,0,1,.359-1.219,2.112,2.112,0,0,1,1.031-.766,4.358,4.358,0,0,1,1.578-.266,7.448,7.448,0,0,1,.984.063,8.613,8.613,0,0,1,1.094.188v1.7h-.8a2.608,2.608,0,0,0-.3-.734,1.021,1.021,0,0,0-.437-.406,1.432,1.432,0,0,0-.641-.125,1.377,1.377,0,0,0-.594.125.913.913,0,0,0-.422.344,1.074,1.074,0,0,0-.141.563,1.276,1.276,0,0,0,.125.578,1.569,1.569,0,0,0,.438.5,6.153,6.153,0,0,0,.906.531,5.684,5.684,0,0,1,1.125.734,2.179,2.179,0,0,1,.609.8,2.463,2.463,0,0,1-.141,2.234,2.084,2.084,0,0,1-.969.813,3.553,3.553,0,0,1-1.469.281,10.591,10.591,0,0,1-1.25-.078,10.051,10.051,0,0,1-1.2-.187v-1.8h.8Zm8.471-6.031a7.234,7.234,0,0,1,1.641.156,3.614,3.614,0,0,1,1.156.484,2.841,2.841,0,0,1,.828.781,3.3,3.3,0,0,1,.469,1.063,5.29,5.29,0,0,1,.156,1.344,5.738,5.738,0,0,1-.219,1.641,3.562,3.562,0,0,1-.641,1.234,3.187,3.187,0,0,1-.937.766,4.119,4.119,0,0,1-1.281.422,9.126,9.126,0,0,1-1.562.109H59.269v-.391a2.062,2.062,0,0,0,.344-.125.409.409,0,0,0,.188-.187.828.828,0,0,0,.078-.3q.016-.187.016-.469V217.13q0-.281-.016-.469a.723.723,0,0,0-.078-.3.409.409,0,0,0-.187-.187,1.371,1.371,0,0,0-.344-.141v-.391h3.047Zm-.609,7.3a5.454,5.454,0,0,0,.547.016,2.739,2.739,0,0,0,1.078-.187,1.654,1.654,0,0,0,.563-.391,2.586,2.586,0,0,0,.563-1.047,5.846,5.846,0,0,0,.219-1.719,4.952,4.952,0,0,0-.3-1.844,2.19,2.19,0,0,0-.844-1.078,2.308,2.308,0,0,0-1.3-.359q-.359,0-.531.016Z" transform="translate(2310 13510)" fill="#0e2949"/>
      <path id="Path_2618" data-name="Path 2618" d="M66.952,207.168h0a1.686,1.686,0,0,1,1.686-1.686h0a1.686,1.686,0,0,1,1.686,1.686h0a1.686,1.686,0,0,1-1.686,1.686h0A1.686,1.686,0,0,1,66.952,207.168Z" transform="translate(2310 13510)" fill-rule="evenodd" fill="url(#linear-gradient)"/>
      <path id="Path_2619" data-name="Path 2619" d="M66.952,207.168h0a1.686,1.686,0,0,1,1.686-1.686h0a1.686,1.686,0,0,1,1.686,1.686h0a1.686,1.686,0,0,1-1.686,1.686h0A1.686,1.686,0,0,1,66.952,207.168Z" transform="translate(2310 13510)" fill="none" stroke="#3cc3f2" stroke-miterlimit="800" stroke-width="1" fill-rule="evenodd"/>
      <path id="Path_2620" data-name="Path 2620" d="M71.5,204.146H63.2a.52.52,0,0,0-.519.519v1.88a1.844,1.844,0,0,1,.467-.065,2.518,2.518,0,0,1,.311.026v-1.582h7.78v4.927h-4.4l-.739.778H71.5a.52.52,0,0,0,.519-.519v-5.446a.52.52,0,0,0-.519-.519" transform="translate(2310 13510)" fill="#901918" fill-rule="evenodd"/>
      <path id="Path_2621" data-name="Path 2621" d="M63.161,209.2a1.1,1.1,0,1,0-1.1-1.1,1.1,1.1,0,0,0,1.1,1.1" transform="translate(2310 13510)" fill="#901918" fill-rule="evenodd"/>
      <path id="Path_2622" data-name="Path 2622" d="M67.4,207.92a.561.561,0,0,0-.765-.169c-.052.026-.078.078-.1.1l-1.893,1.971a4.39,4.39,0,0,0-.571-.233,5.438,5.438,0,0,0-.908-.117,3.153,3.153,0,0,0-.908.143,2.989,2.989,0,0,0-1.154.609.685.685,0,0,0-.169.3l-.272,1.141h3.877v-.013l1.1-1.284,1.7-1.789a.544.544,0,0,0,.065-.661" transform="translate(2310 13510)" fill="#901918" fill-rule="evenodd"/>
    </g>
  </svg>
  